<svg width="290" height="124" viewBox="0 0 290 124" fill="none" xmlns="http://www.w3.org/2000/svg">
<g filter="url(#filter0_d)">
<path d="M30.0002 31.2555C30.0002 25.7326 34.4774 21.2555 40.0002 21.2555H80.519C86.0418 21.2555 90.519 25.7326 90.519 31.2555V70.7633C90.519 76.2861 86.0418 80.7633 80.519 80.7633H57.4041C55.7773 80.7633 54.2014 80.2787 52.6437 79.8096C51.2764 79.3979 50.0059 79.4191 51.146 81.5647C53.2115 85.452 45.6754 84.788 45.6754 81.5647C45.6754 79.6413 43.6768 79.8797 42.0649 80.3849C40.7136 80.8084 39.3196 81.158 37.9048 81.098V81.098C33.4861 80.9109 30.0002 77.2742 30.0002 72.8516V31.2555Z" fill="#E5231C"/>
</g>
<g clip-path="url(#clip0)">
<path d="M83.1459 27.3612C83.1436 27.359 83.1412 27.3571 83.139 27.355C82.7502 26.9779 82.2145 26.7618 81.6676 26.7618H81.6649C81.1922 26.7618 80.7296 26.9209 80.3624 27.2092C75.3641 31.1165 70.3474 35.1496 65.4511 39.1961C64.2605 40.18 63.0689 41.1716 61.8783 42.1687L48.2852 28.865C46.943 27.5515 44.7591 27.5517 43.417 28.865L36.9612 35.1835C36.6923 35.4468 36.6923 35.8733 36.9612 36.1365C37.23 36.3996 37.666 36.3996 37.9348 36.1365L42.4434 31.7239L43.4286 32.6882L38.9201 37.1008C38.6512 37.364 38.6512 37.7906 38.9201 38.0538C39.0545 38.1853 39.2308 38.2511 39.4069 38.2511C39.5831 38.2511 39.7593 38.1853 39.8937 38.0538L44.4023 33.6412L45.3876 34.6055L40.879 39.0181C40.6101 39.2813 40.6101 39.7079 40.879 39.971C41.0134 40.1026 41.1896 40.1683 41.3658 40.1683C41.5419 40.1683 41.7182 40.1026 41.8526 39.971L46.3612 35.5584L47.3464 36.5226L42.8379 40.9352C42.569 41.1985 42.569 41.6251 42.8379 41.8882C42.9723 42.0197 43.1486 42.0855 43.3247 42.0855C43.5009 42.0855 43.6771 42.0197 43.8115 41.8882L48.32 37.4756L49.3053 38.4399L44.7968 42.8525C44.5279 43.1157 44.5279 43.5423 44.7968 43.8055C44.9312 43.937 45.1074 44.0028 45.2836 44.0028C45.4597 44.0028 45.636 43.937 45.7704 43.8055L50.2789 39.3929L51.2641 40.3572L46.7556 44.7698C46.4868 45.033 46.4868 45.4596 46.7556 45.7227C46.89 45.8543 47.0663 45.92 47.2424 45.92C47.4186 45.92 47.5948 45.8543 47.7292 45.7227L52.2377 41.3101L53.223 42.2744L48.7145 46.687C48.4456 46.9503 48.4456 47.3768 48.7145 47.64C48.8489 47.7715 49.0251 47.8373 49.2013 47.8373C49.3774 47.8373 49.5537 47.7715 49.6881 47.64L54.1966 43.2274L55.1819 44.1918L50.6734 48.6044C50.4046 48.8676 50.4046 49.2942 50.6734 49.5574C50.8078 49.6889 50.9841 49.7547 51.1602 49.7547C51.3364 49.7547 51.5126 49.6889 51.647 49.5574L56.1556 45.1447L57.1756 46.1429C55.0616 47.9448 52.9585 49.7573 50.8791 51.572C50.8782 51.572 50.8782 51.572 50.8782 51.573C50.2605 52.1107 49.5867 52.7301 48.922 53.3168C48.5148 53.6051 48.5924 54.1119 48.7944 54.3096C48.7944 54.3096 48.7944 54.3105 48.7954 54.3105C49.4581 55.0958 49.8244 56.0984 49.8244 57.1351C49.8244 58.3471 49.348 59.481 48.4824 60.3273C48.4737 60.3358 46.415 62.3508 46.406 62.3596C43.412 65.3581 38.1395 63.3119 38.1365 59.0652C38.1383 56.4869 40.2659 54.3574 42.9539 54.3556C44.4179 54.3565 45.7848 54.9943 46.7037 56.1039C46.9529 56.4045 47.4105 56.4371 47.7006 56.1794C47.7043 56.1767 47.707 56.174 47.7107 56.1704L47.7171 56.1649C48.0396 55.8812 48.0168 55.3699 47.6565 55.1173C46.4797 53.7769 44.7677 53.0079 42.9584 53.0079H42.9493C39.5071 53.0079 36.7556 55.7513 36.7596 59.0652C36.7566 61.5623 38.3157 63.7679 40.6223 64.6849C41.9919 65.2277 43.4922 65.2651 44.8475 64.8399C43.5558 68.7729 46.5622 72.7618 50.7408 72.7618H50.7481C54.1626 72.7618 56.9454 70.0565 56.9416 66.701C56.9434 65.1063 56.3155 63.6014 55.1763 62.4621C55.177 62.4613 56.5821 60.898 56.5821 60.898C59.0625 58.1966 61.5159 55.483 63.9396 52.7628L64.9769 53.778L60.4684 58.1906C60.1996 58.4539 60.1996 58.8804 60.4684 59.1436C60.6029 59.2751 60.7792 59.3409 60.9553 59.3409C61.1315 59.3409 61.3077 59.2751 61.4422 59.1436L65.9507 54.731L66.936 55.6953L62.4275 60.1079C62.1586 60.3711 62.1586 60.7977 62.4275 61.0609C62.5619 61.1924 62.7382 61.2582 62.9144 61.2582C63.0905 61.2582 63.2668 61.1924 63.4012 61.0609L67.9098 56.6483L68.8949 57.6125L64.3864 62.0251C64.1175 62.2883 64.1175 62.7149 64.3864 62.978C64.5209 63.1096 64.6971 63.1753 64.8733 63.1753C65.0495 63.1753 65.2257 63.1096 65.3602 62.978L69.8687 58.5655L70.8539 59.5297L66.3454 63.9423C66.0765 64.2056 66.0765 64.6321 66.3454 64.8953C66.4798 65.0268 66.6561 65.0926 66.8322 65.0926C67.0084 65.0926 67.1847 65.0268 67.3191 64.8953L71.8277 60.4826L72.8129 61.4469L68.3044 65.8595C68.0355 66.1227 68.0355 66.5493 68.3044 66.8125C68.4389 66.944 68.6151 67.0098 68.7913 67.0098C68.9674 67.0098 69.1437 66.944 69.2782 66.8125L73.7867 62.3999L74.7719 63.3641L70.2633 67.7767C69.9945 68.0399 69.9945 68.4665 70.2633 68.7297C70.3978 68.8612 70.5741 68.927 70.7502 68.927C70.9264 68.927 71.1026 68.8612 71.2371 68.7297L75.7456 64.3171L76.7308 65.2813L72.2223 69.6939C71.9534 69.9571 71.9534 70.3837 72.2223 70.6468C72.3568 70.7784 72.533 70.8441 72.7092 70.8441C72.8853 70.8441 73.0616 70.7784 73.1961 70.6468L77.7046 66.2342L78.6897 67.1984L74.1812 71.611C73.9124 71.8743 73.9124 72.3009 74.1812 72.564C74.3157 72.6955 74.492 72.7613 74.6681 72.7613C74.8443 72.7613 75.0205 72.6955 75.155 72.564L80.1497 67.6755C80.1499 67.6753 80.1501 67.6751 80.1504 67.6749C80.1507 67.6747 80.1509 67.6744 80.1511 67.6742L81.6108 66.2455C82.261 65.6091 82.6191 64.7631 82.6191 63.8631C82.6191 62.9631 82.261 62.1171 81.6109 61.4807L68.0027 48.1631C73.2814 42.1362 78.3987 36.091 83.3019 30.0852C83.9672 29.2702 83.9 28.0992 83.1459 27.3612ZM43.4171 30.7709L44.3907 29.8181C45.1959 29.0299 46.5063 29.0299 47.3116 29.8181L60.8304 43.0493C59.9582 43.7826 59.0868 44.5178 58.2171 45.2563L43.4171 30.7709ZM80.6369 62.4343C81.0271 62.816 81.242 63.3237 81.242 63.8636C81.242 64.4036 81.0271 64.9112 80.6369 65.2929L79.6633 66.2458C79.2084 65.8007 65.8227 52.6997 64.8459 51.7438C65.6013 50.8927 66.3543 50.0411 67.1035 49.1889L80.6369 62.4343ZM55.941 59.5785C55.6073 59.3285 54.7176 58.8956 54.5697 57.6662C54.5283 57.3267 54.2355 57.0714 53.8876 57.0714C53.4717 57.0714 53.1547 57.425 53.2019 57.8244C53.2028 57.8244 53.2028 57.8244 53.2028 57.8244C53.3341 58.9231 53.9436 59.8944 54.8744 60.4882C54.9231 60.5197 54.9717 60.552 55.0222 60.5879C54.5447 61.1211 54.1505 61.5701 53.6985 62.0587C53.5727 62.1952 53.5085 62.3793 53.5232 62.5626C53.5369 62.7459 53.6297 62.9184 53.7756 63.0343C54.9311 63.9574 55.5636 65.286 55.5647 66.7009C55.5628 69.2977 53.4253 71.4123 50.7455 71.4141C48.0968 71.4107 45.9262 69.3214 45.9262 66.7009C45.9294 64.5683 47.3075 63.4262 47.4134 63.2796L49.4558 61.2806C50.5811 60.1793 51.2017 58.6893 51.2017 57.1351C51.2026 55.9995 50.8703 54.9025 50.2425 53.9646C50.7816 53.4822 51.2504 53.0541 51.7948 52.5792L51.7976 52.5756C66.725 39.5489 81.046 28.3511 81.3151 28.2002C81.1305 28.3809 54.2686 54.66 54.1446 54.7967C53.8922 55.0752 53.9188 55.502 54.2025 55.7481C54.4876 55.9966 54.9243 55.9675 55.1746 55.6915C55.2569 55.5997 82.0921 29.3451 82.2888 29.1526C82.2326 29.2495 71.1449 42.9947 55.941 59.5785Z" fill="#F9E746"/>
<path d="M45.3906 56.6866C43.2189 54.5613 39.5135 56.0928 39.5137 59.0685C39.5137 59.9679 39.872 60.8138 40.5226 61.4504C41.1937 62.1072 42.075 62.4354 42.9566 62.4354C43.8379 62.4354 44.7195 62.107 45.3906 61.4504C46.7342 60.1356 46.7344 58.0015 45.3906 56.6866ZM44.4171 60.4974C43.6117 61.2852 42.3014 61.2854 41.4961 60.4974C40.2063 59.2351 41.1094 57.0485 42.9566 57.0485C44.809 57.0486 45.7009 59.241 44.4171 60.4974Z" fill="#F9E746"/>
<path d="M50.7455 63.3329C49.3299 63.3329 48.1139 64.1284 47.5719 65.409C47.0273 66.6959 47.3108 68.1039 48.3116 69.0832C48.9764 69.7337 49.8328 70.0748 50.7172 70.0748C51.1639 70.0748 51.618 69.9876 52.0577 69.8094C53.3716 69.2766 54.1878 68.0856 54.1878 66.7012C54.1877 64.844 52.6436 63.3329 50.7455 63.3329ZM51.5306 68.5644C50.9146 68.814 50.0013 68.8311 49.285 68.1303C48.5684 67.4289 48.5874 66.5311 48.8439 65.9247C49.0985 65.3232 49.7317 64.6805 50.7454 64.6805C51.8843 64.6805 52.8108 65.587 52.8108 66.7012C52.8108 67.6922 52.1495 68.3135 51.5306 68.5644Z" fill="#F9E746"/>
</g>
<path d="M113.53 56.9463C111.68 56.9463 110.013 56.5629 108.53 55.7963C107.046 55.0129 105.88 53.9296 105.03 52.5463C104.196 51.1463 103.78 49.5629 103.78 47.7963C103.78 46.0296 104.196 44.4546 105.03 43.0713C105.88 41.6713 107.046 40.5879 108.53 39.8213C110.013 39.0379 111.68 38.6463 113.53 38.6463C115.23 38.6463 116.746 38.9463 118.08 39.5463C119.413 40.1463 120.513 41.0129 121.38 42.1463L117.655 45.4713C116.571 44.1046 115.296 43.4213 113.83 43.4213C112.596 43.4213 111.605 43.8213 110.855 44.6213C110.105 45.4046 109.73 46.4629 109.73 47.7963C109.73 49.1296 110.105 50.1963 110.855 50.9963C111.605 51.7796 112.596 52.1713 113.83 52.1713C115.296 52.1713 116.571 51.4879 117.655 50.1213L121.38 53.4463C120.513 54.5796 119.413 55.4463 118.08 56.0463C116.746 56.6463 115.23 56.9463 113.53 56.9463ZM137.614 42.8713V56.5463H132.239V55.2463C131.739 55.7629 131.156 56.1546 130.489 56.4213C129.822 56.6713 129.114 56.7963 128.364 56.7963C126.631 56.7963 125.239 56.2713 124.189 55.2213C123.139 54.1546 122.614 52.5546 122.614 50.4213V42.8713H128.264V49.4463C128.264 50.3796 128.414 51.0463 128.714 51.4463C129.014 51.8463 129.456 52.0463 130.039 52.0463C130.589 52.0463 131.047 51.8296 131.414 51.3963C131.781 50.9463 131.964 50.2463 131.964 49.2963V42.8713H137.614ZM150.195 56.0713C149.345 56.5546 148.187 56.7963 146.72 56.7963C144.803 56.7963 143.328 56.3379 142.295 55.4213C141.262 54.4879 140.745 53.0963 140.745 51.2463V47.7463H138.87V43.6213H140.745V39.7963H146.395V43.6213H149.195V47.7463H146.395V51.1963C146.395 51.6129 146.503 51.9379 146.72 52.1713C146.937 52.4046 147.22 52.5213 147.57 52.5213C148.053 52.5213 148.478 52.3963 148.845 52.1463L150.195 56.0713ZM151.819 37.3713H157.194L160.494 41.3713H156.744L151.819 37.3713ZM176.109 42.6213C177.793 42.6213 179.143 43.1296 180.159 44.1463C181.193 45.1629 181.709 46.6963 181.709 48.7463V56.5463H176.059V49.7213C176.059 48.1546 175.501 47.3713 174.384 47.3713C173.751 47.3713 173.234 47.5963 172.834 48.0463C172.451 48.4796 172.259 49.1713 172.259 50.1213V56.5463H166.609V42.8713H171.984V44.2213C172.518 43.6879 173.134 43.2879 173.834 43.0213C174.534 42.7546 175.293 42.6213 176.109 42.6213ZM184.363 37.3713H189.738L193.038 41.3713H189.288L184.363 37.3713ZM206.828 52.1463H205.228V56.5463H199.328V39.0463H207.753C209.37 39.0463 210.778 39.3129 211.978 39.8463C213.178 40.3796 214.103 41.1463 214.753 42.1463C215.403 43.1463 215.728 44.3129 215.728 45.6463C215.728 46.8963 215.445 47.9879 214.878 48.9213C214.311 49.8546 213.495 50.5963 212.428 51.1463L216.103 56.5463H209.803L206.828 52.1463ZM209.778 45.6463C209.778 44.9963 209.578 44.4963 209.178 44.1463C208.778 43.7796 208.178 43.5963 207.378 43.5963H205.228V47.6963H207.378C208.178 47.6963 208.778 47.5213 209.178 47.1713C209.578 46.8046 209.778 46.2963 209.778 45.6463ZM225.006 56.7963C223.489 56.7963 222.123 56.4963 220.906 55.8963C219.706 55.2796 218.764 54.4379 218.081 53.3713C217.398 52.2879 217.056 51.0629 217.056 49.6963C217.056 48.3296 217.398 47.1129 218.081 46.0463C218.764 44.9629 219.706 44.1213 220.906 43.5213C222.123 42.9213 223.489 42.6213 225.006 42.6213C226.539 42.6213 227.906 42.9213 229.106 43.5213C230.323 44.1213 231.264 44.9629 231.931 46.0463C232.614 47.1129 232.956 48.3296 232.956 49.6963C232.956 51.0629 232.614 52.2879 231.931 53.3713C231.264 54.4379 230.323 55.2796 229.106 55.8963C227.906 56.4963 226.539 56.7963 225.006 56.7963ZM225.006 52.3963C225.656 52.3963 226.189 52.1629 226.606 51.6963C227.023 51.2129 227.231 50.5463 227.231 49.6963C227.231 48.8463 227.023 48.1879 226.606 47.7213C226.189 47.2546 225.656 47.0213 225.006 47.0213C224.356 47.0213 223.823 47.2546 223.406 47.7213C222.989 48.1879 222.781 48.8463 222.781 49.6963C222.781 50.5463 222.989 51.2129 223.406 51.6963C223.823 52.1629 224.356 52.3963 225.006 52.3963ZM234.724 37.9963H240.374V56.5463H234.724V37.9963ZM242.879 37.9963H248.529V56.5463H242.879V37.9963Z" fill="black"/>
<defs>
<filter id="filter0_d" x="0.000244141" y="0.255493" width="120.519" height="122.981" filterUnits="userSpaceOnUse" color-interpolation-filters="sRGB">
<feFlood flood-opacity="0" result="BackgroundImageFix"/>
<feColorMatrix in="SourceAlpha" type="matrix" values="0 0 0 0 0 0 0 0 0 0 0 0 0 0 0 0 0 0 127 0"/>
<feOffset dy="9"/>
<feGaussianBlur stdDeviation="15"/>
<feColorMatrix type="matrix" values="0 0 0 0 0 0 0 0 0 0 0 0 0 0 0 0 0 0 0.25 0"/>
<feBlend mode="normal" in2="BackgroundImageFix" result="effect1_dropShadow"/>
<feBlend mode="normal" in="SourceGraphic" in2="effect1_dropShadow" result="shape"/>
</filter>
<clipPath id="clip0">
<rect width="47" height="46" fill="white" transform="translate(36.7593 26.7618)"/>
</clipPath>
</defs>
</svg>
