<svg width="39" height="40" viewBox="0 0 39 40" fill="none" xmlns="http://www.w3.org/2000/svg">
<g clip-path="url(#clip0)">
<path d="M34.1251 0.856689H4.87506C2.1865 0.856689 6.10352e-05 3.04313 6.10352e-05 5.73169V34.9817C6.10352e-05 37.6703 2.1865 39.8567 4.87506 39.8567H34.1251C36.8136 39.8567 39.0001 37.6703 39.0001 34.9817V5.73169C39.0001 3.04313 36.8136 0.856689 34.1251 0.856689Z" fill="#1976D2"/>
<path d="M32.9063 20.3567H26.8126V15.4817C26.8126 14.1362 27.9046 14.2629 29.2501 14.2629H31.6876V8.16919H26.8126C22.7736 8.16919 19.5001 11.4428 19.5001 15.4817V20.3567H14.6251V26.4504H19.5001V39.8567H26.8126V26.4504H30.4688L32.9063 20.3567Z" fill="#FAFAFA"/>
</g>
<defs>
<clipPath id="clip0">
<rect x="6.10352e-05" y="0.856689" width="39" height="39" rx="19.5" fill="white"/>
</clipPath>
</defs>
</svg>
