<svg width="39" height="40" viewBox="0 0 39 40" fill="none" xmlns="http://www.w3.org/2000/svg">
<g clip-path="url(#clip0)">
<path d="M36.5625 3.56835C39.6273 6.74665 39 10.1229 39 20.3798C39 28.8974 40.4885 37.4361 32.6983 39.4463C30.2657 40.0709 8.71167 40.0709 6.28229 39.4431C3.03879 38.6075 0.399788 35.9808 0.0390396 31.4008C-0.0113373 30.7616 -0.0113335 10.0093 0.0406647 9.3571C0.424164 4.47852 3.43204 1.66688 7.39542 1.09742C8.30379 0.966002 8.48579 0.927064 13.1463 0.918952C29.6774 0.927064 33.3012 0.192112 36.5625 3.56835Z" fill="url(#paint0_linear)"/>
<path d="M19.5033 5.95756C25.4037 5.95756 31.0067 5.43269 33.1468 10.9252C34.0308 13.1937 33.9024 16.1398 33.9024 20.3583C33.9024 24.0601 34.0211 27.5392 33.1468 29.7898C31.0116 35.2856 25.3631 34.7591 19.5066 34.7591C13.8564 34.7591 8.03081 35.3473 5.86469 29.7898C4.97906 27.4986 5.10906 24.5963 5.10906 20.3583C5.10906 14.7326 4.79869 11.1007 7.52706 8.37394C10.2896 5.61144 14.0254 5.95756 19.5098 5.95756H19.5033ZM20.7936 8.55269C8.48581 8.53319 6.91931 7.16494 7.78381 26.1726C8.09094 32.8952 13.2097 32.1574 19.5017 32.1574C30.9742 32.1574 31.3041 31.8292 31.3041 20.3518C31.3041 8.74119 30.3941 8.55919 20.7936 8.54944V8.55269ZM11.8171 10.9431C12.7709 10.9431 13.5444 11.7166 13.5444 12.6704C13.5444 13.6243 12.7709 14.3978 11.8171 14.3978C10.8632 14.3978 10.0897 13.6243 10.0897 12.6704C10.0897 11.7166 10.8632 10.9431 11.8171 10.9431ZM19.5033 12.9629C23.5869 12.9629 26.8971 16.2747 26.8971 20.3583C26.8971 24.4419 23.5869 27.7521 19.5033 27.7521C15.4197 27.7521 12.1112 24.4419 12.1112 20.3583C12.1112 16.2747 15.4197 12.9629 19.5033 12.9629ZM19.5033 15.5581C13.1577 15.5581 13.1496 25.1586 19.5033 25.1586C25.8473 25.1586 25.8571 15.5581 19.5033 15.5581Z" fill="white"/>
</g>
<defs>
<linearGradient id="paint0_linear" x1="36.4878" y1="37.3698" x2="0.290929" y2="5.99182" gradientUnits="userSpaceOnUse">
<stop stop-color="#FFDD55"/>
<stop offset="0.5" stop-color="#FF543E"/>
<stop offset="1" stop-color="#C837AB"/>
</linearGradient>
<clipPath id="clip0">
<rect width="39" height="39" rx="19.5" transform="matrix(-1 0 0 1 39.0001 0.856689)" fill="white"/>
</clipPath>
</defs>
</svg>
