<svg width="40" height="40" viewBox="0 0 40 40" fill="none" xmlns="http://www.w3.org/2000/svg">
<g clip-path="url(#clip0)">
<path d="M19.8646 39.8567C30.6341 39.8567 39.3646 31.1262 39.3646 20.3567C39.3646 9.58714 30.6341 0.856689 19.8646 0.856689C9.09501 0.856689 0.364563 9.58714 0.364563 20.3567C0.364563 31.1262 9.09501 39.8567 19.8646 39.8567Z" fill="#039BE5"/>
<path d="M9.28744 19.9342L28.0887 12.685C28.9613 12.3698 29.7234 12.8979 29.4407 14.2174L29.4423 14.2158L26.2411 29.2974C26.0038 30.3667 25.3684 30.6267 24.4796 30.1229L19.6046 26.53L17.2532 28.7953C16.9932 29.0553 16.7738 29.2747 16.2701 29.2747L16.6162 24.3135L25.6512 16.1512C26.0444 15.805 25.5634 15.61 25.0451 15.9545L13.8797 22.9843L9.06644 21.4828C8.02156 21.1513 7.99881 20.4379 9.28744 19.9342Z" fill="white"/>
</g>
<defs>
<clipPath id="clip0">
<rect width="39" height="39" fill="white" transform="translate(0.364563 0.856689)"/>
</clipPath>
</defs>
</svg>
