<svg width="40" height="40" viewBox="0 0 40 40" fill="none" xmlns="http://www.w3.org/2000/svg">
<g clip-path="url(#clip0)">
<path d="M20.1823 39.8567C30.9519 39.8567 39.6823 31.1262 39.6823 20.3567C39.6823 9.58714 30.9519 0.856689 20.1823 0.856689C9.41276 0.856689 0.682312 9.58714 0.682312 20.3567C0.682312 31.1262 9.41276 39.8567 20.1823 39.8567Z" fill="#4D76A1"/>
<path fill-rule="evenodd" clip-rule="evenodd" d="M19.4457 28.9092H20.9763C20.9763 28.9092 21.4386 28.8585 21.6746 28.604C21.8918 28.3704 21.8849 27.9317 21.8849 27.9317C21.8849 27.9317 21.855 25.8781 22.8081 25.5757C23.7477 25.2778 24.9543 27.5605 26.2331 28.4382C27.2001 29.1025 27.935 28.9568 27.935 28.9568L31.3544 28.9092C31.3544 28.9092 33.1432 28.799 32.295 27.3926C32.2255 27.2775 31.8011 26.3522 29.7526 24.4508C27.6086 22.4608 27.8957 22.7827 30.4784 19.3403C32.0513 17.2439 32.6802 15.964 32.4838 15.4158C32.2964 14.8937 31.1396 15.0317 31.1396 15.0317L27.2895 15.0557C27.2895 15.0557 27.0041 15.0168 26.7924 15.1433C26.5856 15.2674 26.4524 15.5566 26.4524 15.5566C26.4524 15.5566 25.8431 17.1789 25.0304 18.5585C23.316 21.4697 22.6305 21.6234 22.3503 21.4426C21.6986 21.0213 21.8613 19.7501 21.8613 18.8471C21.8613 16.0259 22.2892 14.8496 21.028 14.5451C20.6095 14.4439 20.3016 14.3772 19.2313 14.3664C17.8575 14.3522 16.6948 14.3706 16.0364 14.6932C15.5984 14.9076 15.2606 15.3856 15.4664 15.4131C15.7208 15.4471 16.2971 15.5684 16.6027 15.9845C16.9972 16.5212 16.9833 17.7267 16.9833 17.7267C16.9833 17.7267 17.2099 21.0478 16.4539 21.4604C15.9349 21.7433 15.223 21.1656 13.6946 18.5245C12.9114 17.1716 12.3202 15.6762 12.3202 15.6762C12.3202 15.6762 12.2062 15.3967 12.0028 15.2473C11.756 15.0661 11.4112 15.0084 11.4112 15.0084L7.75263 15.0324C7.75263 15.0324 7.20341 15.0477 7.0018 15.2865C6.82244 15.4989 6.98755 15.9383 6.98755 15.9383C6.98755 15.9383 9.85182 22.6394 13.095 26.0164C16.0688 29.1126 19.4457 28.9092 19.4457 28.9092Z" fill="white"/>
</g>
<defs>
<clipPath id="clip0">
<rect width="39" height="39" fill="white" transform="translate(0.682312 0.856689)"/>
</clipPath>
</defs>
</svg>
